<svg width="187" height="40" viewBox="0 0 187 40" fill="none" xmlns="http://www.w3.org/2000/svg">
<path d="M74.1055 14.512C75.7375 14.512 77.0495 15.016 78.0415 16.024C79.0495 17.016 79.5535 18.408 79.5535 20.2V28H76.1935V20.656C76.1935 19.616 75.9295 18.824 75.4015 18.28C74.8735 17.72 74.1535 17.44 73.2415 17.44C72.3295 17.44 71.6015 17.72 71.0575 18.28C70.5295 18.824 70.2655 19.616 70.2655 20.656V28H66.9055V20.656C66.9055 19.616 66.6415 18.824 66.1135 18.28C65.5855 17.72 64.8655 17.44 63.9535 17.44C63.0255 17.44 62.2895 17.72 61.7455 18.28C61.2175 18.824 60.9535 19.616 60.9535 20.656V28H57.5935V14.704H60.9535V16.312C61.3855 15.752 61.9375 15.312 62.6095 14.992C63.2975 14.672 64.0495 14.512 64.8655 14.512C65.9055 14.512 66.8335 14.736 67.6495 15.184C68.4655 15.616 69.0975 16.24 69.5455 17.056C69.9775 16.288 70.6015 15.672 71.4175 15.208C72.2495 14.744 73.1455 14.512 74.1055 14.512Z" fill="white"/>
<path d="M95.4619 14.704L87.2299 34.288H83.6539L86.5339 27.664L81.2059 14.704H84.9739L88.4059 23.992L91.8859 14.704H95.4619Z" fill="white"/>
<path d="M119.504 14.512C121.136 14.512 122.448 15.016 123.44 16.024C124.448 17.016 124.952 18.408 124.952 20.2V28H121.592V20.656C121.592 19.616 121.328 18.824 120.8 18.28C120.272 17.72 119.552 17.44 118.64 17.44C117.728 17.44 117 17.72 116.456 18.28C115.928 18.824 115.664 19.616 115.664 20.656V28H112.304V20.656C112.304 19.616 112.04 18.824 111.512 18.28C110.984 17.72 110.264 17.44 109.352 17.44C108.424 17.44 107.688 17.72 107.144 18.28C106.616 18.824 106.352 19.616 106.352 20.656V28H102.992V14.704H106.352V16.312C106.784 15.752 107.336 15.312 108.008 14.992C108.696 14.672 109.448 14.512 110.264 14.512C111.304 14.512 112.232 14.736 113.048 15.184C113.864 15.616 114.496 16.24 114.944 17.056C115.376 16.288 116 15.672 116.816 15.208C117.648 14.744 118.544 14.512 119.504 14.512Z" fill="white"/>
<path d="M134.044 28.216C132.764 28.216 131.612 27.936 130.588 27.376C129.564 26.8 128.756 25.992 128.164 24.952C127.588 23.912 127.3 22.712 127.3 21.352C127.3 19.992 127.596 18.792 128.188 17.752C128.796 16.712 129.62 15.912 130.66 15.352C131.7 14.776 132.86 14.488 134.14 14.488C135.42 14.488 136.58 14.776 137.62 15.352C138.66 15.912 139.476 16.712 140.068 17.752C140.676 18.792 140.98 19.992 140.98 21.352C140.98 22.712 140.668 23.912 140.044 24.952C139.436 25.992 138.604 26.8 137.548 27.376C136.508 27.936 135.34 28.216 134.044 28.216ZM134.044 25.288C134.652 25.288 135.22 25.144 135.748 24.856C136.292 24.552 136.724 24.104 137.044 23.512C137.364 22.92 137.524 22.2 137.524 21.352C137.524 20.088 137.188 19.12 136.516 18.448C135.86 17.76 135.052 17.416 134.092 17.416C133.132 17.416 132.324 17.76 131.668 18.448C131.028 19.12 130.708 20.088 130.708 21.352C130.708 22.616 131.02 23.592 131.644 24.28C132.284 24.952 133.084 25.288 134.044 25.288Z" fill="white"/>
<path d="M150.813 14.512C152.397 14.512 153.677 15.016 154.653 16.024C155.629 17.016 156.117 18.408 156.117 20.2V28H152.757V20.656C152.757 19.6 152.493 18.792 151.965 18.232C151.437 17.656 150.717 17.368 149.805 17.368C148.877 17.368 148.141 17.656 147.597 18.232C147.069 18.792 146.805 19.6 146.805 20.656V28H143.445V14.704H146.805V16.36C147.253 15.784 147.821 15.336 148.509 15.016C149.213 14.68 149.981 14.512 150.813 14.512Z" fill="white"/>
<path d="M171.672 21.064C171.672 21.544 171.64 21.976 171.576 22.36H161.856C161.936 23.32 162.272 24.072 162.864 24.616C163.456 25.16 164.184 25.432 165.048 25.432C166.296 25.432 167.184 24.896 167.712 23.824H171.336C170.952 25.104 170.216 26.16 169.128 26.992C168.04 27.808 166.704 28.216 165.12 28.216C163.84 28.216 162.688 27.936 161.664 27.376C160.656 26.8 159.864 25.992 159.288 24.952C158.728 23.912 158.448 22.712 158.448 21.352C158.448 19.976 158.728 18.768 159.288 17.728C159.848 16.688 160.632 15.888 161.64 15.328C162.648 14.768 163.808 14.488 165.12 14.488C166.384 14.488 167.512 14.76 168.504 15.304C169.512 15.848 170.288 16.624 170.832 17.632C171.392 18.624 171.672 19.768 171.672 21.064ZM168.192 20.104C168.176 19.24 167.864 18.552 167.256 18.04C166.648 17.512 165.904 17.248 165.024 17.248C164.192 17.248 163.488 17.504 162.912 18.016C162.352 18.512 162.008 19.208 161.88 20.104H168.192Z" fill="white"/>
<path d="M186.845 14.704L178.613 34.288H175.037L177.917 27.664L172.589 14.704H176.357L179.789 23.992L183.269 14.704H186.845Z" fill="white"/>
<path d="M34.1422 5.85781C30.3647 2.08031 25.3422 0 20 0C14.6578 0 9.63531 2.08031 5.85781 5.85781C2.08031 9.63531 0 14.6578 0 20C0 25.3422 2.08039 30.3646 5.85781 34.1422C9.63523 37.9198 14.6578 40 20 40C25.3422 40 30.3647 37.9197 34.1422 34.1422C37.9197 30.3647 40 25.3422 40 20C40 14.6578 37.9196 9.63539 34.1422 5.85781Z" fill="#363F5F"/>
<g clip-path="url(#clip0)">
<path d="M20.5714 8V33.1429" stroke="white" stroke-width="2" stroke-linecap="round" stroke-linejoin="round"/>
<path d="M26.2857 12.5714H17.7143C16.6534 12.5714 15.636 12.9929 14.8859 13.743C14.1357 14.4931 13.7143 15.5106 13.7143 16.5714C13.7143 17.6323 14.1357 18.6497 14.8859 19.3999C15.636 20.15 16.6534 20.5714 17.7143 20.5714H23.4286C24.4894 20.5714 25.5069 20.9929 26.257 21.743C27.0072 22.4932 27.4286 23.5106 27.4286 24.5714C27.4286 25.6323 27.0072 26.6497 26.257 27.3999C25.5069 28.15 24.4894 28.5714 23.4286 28.5714H13.7143" stroke="white" stroke-width="2" stroke-linecap="round" stroke-linejoin="round"/>
</g>
<defs>
<clipPath id="clip0">
<rect width="27.4286" height="27.4286" fill="white" transform="translate(6.85715 6.85714)"/>
</clipPath>
</defs>
</svg>
